<svg width="32" height="32" viewBox="0 0 32 32" fill="none" xmlns="http://www.w3.org/2000/svg">
<path d="M18.3067 28.3333C18.0723 28.7374 17.7358 29.0729 17.331 29.306C16.9261 29.5392 16.4672 29.6619 16 29.6619C15.5328 29.6619 15.0739 29.5392 14.669 29.306C14.2642 29.0729 13.9277 28.7374 13.6933 28.3333M24 11C24 8.87827 23.1571 6.84344 21.6569 5.34315C20.1566 3.84285 18.1217 3 16 3C13.8783 3 11.8434 3.84285 10.3431 5.34315C8.84286 6.84344 8 8.87827 8 11C8 20.3333 4 23 4 23H28C28 23 24 20.3333 24 11Z" stroke="white" stroke-width="2.4" stroke-linecap="round" stroke-linejoin="round"/>
</svg>
