<svg width="32" height="32" viewBox="0 0 32 32" fill="none" xmlns="http://www.w3.org/2000/svg">
<path d="M19.2727 8H22.5455C23.2618 8 23.971 8.14109 24.6328 8.4152C25.2946 8.68932 25.8959 9.0911 26.4024 9.5976C26.9089 10.1041 27.3107 10.7054 27.5848 11.3672C27.8589 12.029 28 12.7382 28 13.4545M12.7273 18.9091H9.45455C8.73824 18.9091 8.02896 18.768 7.36718 18.4939C6.70541 18.2198 6.1041 17.818 5.5976 17.3115C4.57467 16.2886 4 14.9012 4 13.4545C4 12.0079 4.57467 10.6205 5.5976 9.5976C6.62053 8.57467 8.00791 8 9.45455 8H12.7273M11.6364 13.4545H20.3636M23.6364 14.5455V18.9091M23.6364 18.9091V23.2727M23.6364 18.9091H19.2727M23.6364 18.9091H28" stroke="white" stroke-width="2.4" stroke-linecap="round" stroke-linejoin="round"/>
</svg>
