<svg width="32" height="32" viewBox="0 0 32 32" fill="none" xmlns="http://www.w3.org/2000/svg">
<path d="M26.1494 7.85062C25.5629 7.26392 24.8667 6.79851 24.1003 6.48097C23.334 6.16344 22.5126 6 21.6831 6C20.8535 6 20.0321 6.16344 19.2658 6.48097C18.4994 6.79851 17.8032 7.26392 17.2167 7.85062L15.9997 9.06767L14.7826 7.85062C13.5981 6.66608 11.9915 6.00061 10.3163 6.00061C8.64114 6.00061 7.03455 6.66608 5.85001 7.85062C4.66547 9.03517 4 10.6417 4 12.3169C4 13.9921 4.66547 15.5987 5.85001 16.7833L7.06705 18.0003L15.9997 26.9329L24.9323 18.0003L26.1494 16.7833C26.7361 16.1968 27.2015 15.5006 27.519 14.7342C27.8366 13.9679 28 13.1465 28 12.3169C28 11.4874 27.8366 10.666 27.519 9.89967C27.2015 9.13333 26.7361 8.43705 26.1494 7.85062Z" fill="white" stroke="white" stroke-width="2.4" stroke-linecap="round" stroke-linejoin="round"/>
</svg>
