<svg width="32" height="32" viewBox="0 0 32 32" fill="none" xmlns="http://www.w3.org/2000/svg">
<path d="M4 8.33333H6.66667M6.66667 8.33333H28M6.66667 8.33333V27C6.66667 27.7072 6.94762 28.3855 7.44772 28.8856C7.94781 29.3857 8.62609 29.6667 9.33333 29.6667H22.6667C23.3739 29.6667 24.0522 29.3857 24.5523 28.8856C25.0524 28.3855 25.3333 27.7072 25.3333 27V8.33333M10.6667 8.33333V5.66667C10.6667 4.95942 10.9476 4.28115 11.4477 3.78105C11.9478 3.28095 12.6261 3 13.3333 3H18.6667C19.3739 3 20.0522 3.28095 20.5523 3.78105C21.0524 4.28115 21.3333 4.95942 21.3333 5.66667V8.33333M13.3333 15V23M18.6667 15V23" stroke="white" stroke-width="2.4" stroke-linecap="round" stroke-linejoin="round"/>
</svg>
