<svg width="28" height="24" viewBox="0 0 28 24" fill="none" xmlns="http://www.w3.org/2000/svg">
<path d="M14 9.00926V13.6034M14 18.1976H14.0115M12.036 3.10575L2.30783 19.3462C2.10726 19.6935 2.00113 20.0873 2.00001 20.4884C1.99889 20.8895 2.10281 21.2839 2.30143 21.6324C2.50005 21.9808 2.78646 22.2712 3.13215 22.4746C3.47784 22.678 3.87077 22.7874 4.27184 22.7918H23.7282C24.1292 22.7874 24.5222 22.678 24.8679 22.4746C25.2135 22.2712 25.4999 21.9808 25.6986 21.6324C25.8972 21.2839 26.0011 20.8895 26 20.4884C25.9989 20.0873 25.8927 19.6935 25.6922 19.3462L15.964 3.10575C15.7593 2.7682 15.471 2.48912 15.1269 2.29544C14.7829 2.10175 14.3948 2 14 2C13.6052 2 13.2171 2.10175 12.8731 2.29544C12.529 2.48912 12.2407 2.7682 12.036 3.10575Z" stroke="white" stroke-width="2.4" stroke-linecap="round" stroke-linejoin="round"/>
</svg>
